<svg width="32" height="32" viewBox="0 0 32 32" fill="none" xmlns="http://www.w3.org/2000/svg">
<g clip-path="url(#clip0_2052_4267)">
<mask id="mask0_2052_4267" style="mask-type:luminance" maskUnits="userSpaceOnUse" x="0" y="0" width="32" height="32">
<path d="M31.5 31.5V0.5H0.5V31.5H31.5Z" fill="white" stroke="white"/>
</mask>
<g mask="url(#mask0_2052_4267)">
<path d="M9.75 9.8125C9.75 6.3607 12.5482 3.56252 16 3.56252C19.4518 3.56252 22.25 6.3607 22.25 9.8125" stroke="white" stroke-miterlimit="10" stroke-linecap="round" stroke-linejoin="round"/>
<path d="M11.625 0.937632L12.7622 4.47412" stroke="white" stroke-miterlimit="10" stroke-linecap="round" stroke-linejoin="round"/>
<path d="M19.2378 4.47412L20.3749 0.937632" stroke="white" stroke-miterlimit="10" stroke-linecap="round" stroke-linejoin="round"/>
<path d="M9.74999 9.81256H22.25C23.6307 9.81256 24.7499 10.9319 24.7499 12.3126V22.3125C24.7499 27.145 20.8325 31.0625 16 31.0625C11.1675 31.0625 7.25 27.145 7.25 22.3125V12.3126C7.25 10.9319 8.36931 9.81256 9.74999 9.81256Z" stroke="white" stroke-miterlimit="10" stroke-linecap="round" stroke-linejoin="round"/>
<path d="M2.1875 9.18751L3.4375 12.3125H7.24999" stroke="white" stroke-miterlimit="10" stroke-linecap="round" stroke-linejoin="round"/>
<path d="M9.30186 27.9375H4.0625L2.8125 31.0625" stroke="white" stroke-miterlimit="10" stroke-linecap="round" stroke-linejoin="round"/>
<path d="M29.8125 9.18751L28.5625 12.3125H24.75" stroke="white" stroke-miterlimit="10" stroke-linecap="round" stroke-linejoin="round"/>
<path d="M29.1874 31.0625L27.9374 27.9375H22.698" stroke="white" stroke-miterlimit="10" stroke-linecap="round" stroke-linejoin="round"/>
<path d="M7.24998 22.3125H2.1875L0.9375 24.8125" stroke="white" stroke-miterlimit="10" stroke-linecap="round" stroke-linejoin="round"/>
<path d="M31.0625 24.8125L29.8125 22.3125H24.75" stroke="white" stroke-miterlimit="10" stroke-linecap="round" stroke-linejoin="round"/>
<path d="M31.0625 15.4375L29.8125 17.9375H24.75" stroke="white" stroke-miterlimit="10" stroke-linecap="round" stroke-linejoin="round"/>
<path d="M7.24998 17.9375H2.1875L0.9375 15.4375" stroke="white" stroke-miterlimit="10" stroke-linecap="round" stroke-linejoin="round"/>
<path d="M16 9.81252V17.3125" stroke="white" stroke-miterlimit="10" stroke-linecap="round" stroke-linejoin="round"/>
<path d="M14.125 19.1875C14.125 18.152 14.9645 17.3125 16 17.3125C17.0355 17.3125 17.875 18.152 17.875 19.1875C17.875 20.223 17.0355 21.0625 16 21.0625C14.9645 21.0625 14.125 20.223 14.125 19.1875Z" stroke="white" stroke-miterlimit="10" stroke-linecap="round" stroke-linejoin="round"/>
</g>
</g>
<defs>
<clipPath id="clip0_2052_4267">
<rect width="32" height="32" fill="white"/>
</clipPath>
</defs>
</svg>
