<svg width="287" height="238" viewBox="0 0 287 238" fill="none" xmlns="http://www.w3.org/2000/svg">
<path d="M155.814 50.5401C157.895 49.7729 159.836 46.4778 161.097 44.3378C167.982 32.6536 211.389 -1.36126 224.456 0.0421679L224.82 1.32481C222.63 3.72765 220.219 3.68428 217.347 4.74663C194.977 13.0218 163.302 38.1508 154.924 60.2774C200.623 80.3898 242.717 100.55 278.416 136.928C307.179 166.236 256.183 182.723 235.078 190.744C227.666 213.037 206.628 232.095 183.955 238C161.208 226.989 162.229 206.703 152.318 190.139C149.831 194.633 148.501 198.561 143.733 200.188C136.178 198.676 134.437 185.928 132.903 179.321C134.102 180.702 140.408 195.219 143.351 200.026C160.121 174.863 158.292 142.577 154.994 114.034C154.581 110.462 153.908 105.168 154.856 101.73C158.251 106.148 158.761 154.903 158.149 162.468C156.775 165.876 157.829 168.074 156.937 171.445C155.297 177.641 153.934 182.816 152.71 189.183C162.659 196.765 158.868 220.863 184.368 235.528C198.221 232.878 235.273 205.54 230.791 191.251C216.791 191.524 188.898 192.907 182.617 179.048C172.086 155.813 170.594 127.858 159.908 103.838C158.557 101.236 157.67 98.3443 154.807 97.7949L152.886 99.9867C143.562 112.175 138.951 103.248 130.325 96.3608C122.623 110.854 118.245 124.791 114.632 140.825C107.573 172.154 107.186 194.323 67.4426 191.763L69.347 190.27C88.1306 191.932 102.902 184.939 107.404 165.725C113.15 141.195 117.298 118.909 128.587 96.2613C127.149 91.2362 124.43 83.7333 125.746 78.9523C126.198 77.3099 126.35 76.9016 125.814 75.2821C119.004 84.2428 108.775 93.804 101.186 103.048C81.8742 126.572 68.0035 153.333 60.1807 182.775C59.3592 185.867 58.891 186.882 60.2429 189.092L59.8087 189.856C57.1815 190.202 58.0064 190.084 55.6432 192.012C55.0038 194.23 54.9485 195.426 56.4196 197.725C66.4933 213.473 84.5073 230.647 102.161 236.341C120.033 225.088 123.213 208.017 132.004 190.035C131.223 182.79 128.913 174.231 127.509 166.931C124.481 151.207 125.167 136.911 127.126 121.114C127.826 115.474 128.334 106.568 129.975 101.491L130.853 102.131C130.042 109.197 129.309 116.272 128.654 123.353C126.689 138.193 125.487 164.114 131.486 177.88L131.712 178C132.14 174.709 131.226 171.54 130.704 168.31C128.576 155.175 128.3 141.874 129.672 128.643L130.188 128.41C130.894 134.947 129.648 144.68 130.157 152.21C130.531 157.747 133.61 175.358 132.903 179.321C132.253 183.321 133.235 187.194 133.939 191.213C127.789 205.074 120.028 228.585 105.83 236.614C91.3997 244.772 51.304 203.51 53.0713 193.178L54.1576 191.832C51.7611 188.47 -4.23299 174.094 0.25604 152.383C3.80095 135.241 32.7622 114.825 46.1995 105.462C64.2441 92.8871 83.4917 82.6829 103.036 72.9295C112.295 68.3084 122.437 64.383 131.35 59.8206C123.564 38.958 89.0747 12.2928 68.2641 3.91478C66.6661 3.27091 64.0432 2.25278 63.128 1.03818C87.2571 5.47216 116.03 31.2128 129.992 50.9067C139.111 41.7062 147.29 36.8477 155.814 50.5401ZM162.657 76.5078L161.716 76.8574C160.756 83.9043 159.662 86.7971 157.364 93.3813C163.16 107.37 169.149 123.656 172.327 138.414C180.778 177.661 181.715 193.35 227.217 189.52C223.413 172.81 219.394 162.737 213.764 147.317C218.695 150.959 227.409 182.599 228.859 189.719C234.537 188.307 240.053 186.417 245.548 184.419C258.06 179.869 278.792 171.117 284.174 158.341C285.554 155.067 285.306 152.028 284.008 148.783C274.699 125.516 207.158 86.7112 183.351 74.8943C174.548 70.5249 165.228 66.9832 156.122 63.2875L155.31 63.632C158.419 67.1329 160.575 72.2295 162.657 76.5078ZM19.4789 173.538C29.1168 179.115 45.8368 186.374 56.555 189.429C67.1497 155.946 76.4964 130.04 99.4251 102.543C107.322 93.0725 127.557 74.3372 130.269 63.6124L129.586 62.9677C88.7239 81.9463 46.8958 102.452 14.4782 134.458C-3.07775 151.791 -1.75988 160.653 19.4789 173.538ZM130.348 92.4125C135.422 97.1859 139.752 103.638 145.915 103.875C156.122 93.1771 166.829 74.3244 149.895 61.1033C147.486 59.2227 144.635 58.3338 141.534 58.6604C127.126 66.5681 125.409 77.5736 130.348 92.4125ZM146.134 56.3886C149.443 58.2454 149.411 58.9233 152.841 58.7574C158.14 53.1735 149.434 43.7807 141.816 44.0435C138.317 46.2592 130.992 51.9512 131.203 56.5247C134.595 60.1234 141.188 56.6591 146.134 56.3886Z" fill="#99A1AF"/>
<path d="M193.91 111.881C200.707 120.46 208.273 132.096 211.655 142.458L211.216 142.523C205.519 132.592 199.433 121.421 192.436 112.481L193.91 111.881Z" fill="#99A1AF"/>
<path d="M178.182 91.7975C183.454 98.2074 189.1 105.114 193.91 111.881L192.436 112.481C187.903 106.255 182.642 99.8371 177.828 93.7606L178.182 91.7975Z" fill="#99A1AF"/>
<path d="M162.657 76.5078C165.887 78.3722 175.349 88.6071 178.182 91.7975L177.828 93.7606L161.716 76.8574L162.657 76.5078Z" fill="#99A1AF"/>
<path d="M152.886 99.9867L154.807 97.7949C157.67 98.3443 158.557 101.236 159.908 103.838C159.964 118.166 163.579 149.396 159.082 162.805L158.149 162.468C158.761 154.903 158.251 106.148 154.856 101.73L152.886 99.9867Z" fill="#99A1AF"/>
<path d="M128.654 123.353C128.866 124.682 129.227 127.543 129.672 128.643C128.3 141.874 128.576 155.175 130.704 168.31C131.226 171.54 132.14 174.709 131.712 178L131.486 177.88C125.487 164.114 126.689 138.193 128.654 123.353Z" fill="#99A1AF"/>
<path d="M60.2429 189.092C62.6845 189.4 67.0782 189.825 69.347 190.27L67.4426 191.763C64.3608 191.425 62.6989 190.795 59.8087 189.856L60.2429 189.092Z" fill="#99A1AF"/>
</svg>
