<svg width="32" height="32" viewBox="0 0 32 32" fill="none" xmlns="http://www.w3.org/2000/svg">
<g clip-path="url(#clip0_3001_2073)">
<mask id="mask0_3001_2073" style="mask-type:luminance" maskUnits="userSpaceOnUse" x="0" y="0" width="32" height="32">
<path d="M0 9.34601e-05H31.9999V32H0V9.34601e-05Z" fill="white"/>
</mask>
<g mask="url(#mask0_3001_2073)">
<path d="M22.6998 9.30029C21.6014 8.20198 21.6014 6.42118 22.6998 5.3228C23.7981 4.22449 25.5789 4.22449 26.6772 5.3228C27.7756 6.42118 27.7756 8.20192 26.6772 9.30029C25.5789 10.3986 23.7981 10.3986 22.6998 9.30029Z" stroke="white" stroke-width="0.8" stroke-miterlimit="10" stroke-linecap="round" stroke-linejoin="round"/>
<path d="M21.3739 13.2775L18.7223 10.6258C17.99 9.89361 17.99 8.70643 18.7223 7.97418C19.4545 7.24193 20.6417 7.24193 21.3739 7.97418L24.0255 10.6258C24.7578 11.358 24.7578 12.5452 24.0255 13.2775C23.2933 14.0097 22.1061 14.0097 21.3739 13.2775Z" stroke="white" stroke-width="0.8" stroke-miterlimit="10" stroke-linecap="round" stroke-linejoin="round"/>
<path d="M1.48664 30.5133C0.754454 29.7811 0.754454 28.5939 1.48664 27.8617C2.21882 27.1295 3.40607 27.1294 4.13832 27.8617C4.8705 28.5939 4.8705 29.7811 4.13832 30.5133C3.40613 31.2456 2.21889 31.2456 1.48664 30.5133Z" stroke="white" stroke-width="0.8" stroke-miterlimit="10" stroke-linecap="round" stroke-linejoin="round"/>
<path d="M25.3515 0.937471L24.7207 4.49902" stroke="white" stroke-width="0.8" stroke-miterlimit="10" stroke-linecap="round" stroke-linejoin="round"/>
<path d="M27.5007 7.2793L31.0623 6.64849" stroke="white" stroke-width="0.8" stroke-miterlimit="10" stroke-linecap="round" stroke-linejoin="round"/>
<path d="M17.3965 6.64831L18.7223 7.97412" stroke="white" stroke-width="0.8" stroke-miterlimit="10" stroke-linecap="round" stroke-linejoin="round"/>
<path d="M24.0256 13.2777L25.3514 14.6035" stroke="white" stroke-width="0.8" stroke-miterlimit="10" stroke-linecap="round" stroke-linejoin="round"/>
<path d="M18.7223 15.9293L16.0706 13.2777C15.3384 12.5455 15.3384 11.3583 16.0706 10.626C16.8029 9.89385 17.9901 9.89379 18.7223 10.626L21.3739 13.2777C22.1062 14.0099 22.1062 15.1971 21.3739 15.9293C20.6417 16.6616 19.4545 16.6616 18.7223 15.9293Z" stroke="white" stroke-width="0.8" stroke-miterlimit="10" stroke-linecap="round" stroke-linejoin="round"/>
<path d="M14.7449 9.30017L16.0707 10.626" stroke="white" stroke-width="0.8" stroke-miterlimit="10" stroke-linecap="round" stroke-linejoin="round"/>
<path d="M21.374 15.9291L22.6998 17.2549" stroke="white" stroke-width="0.8" stroke-miterlimit="10" stroke-linecap="round" stroke-linejoin="round"/>
<path d="M16.0707 18.5807L13.4191 15.929C12.6868 15.1968 12.6868 14.0096 13.4191 13.2774C14.1513 12.5452 15.3385 12.5452 16.0707 13.2774L18.7224 15.929C19.4545 16.6613 19.4545 17.8484 18.7224 18.5807C17.9902 19.3129 16.8029 19.3129 16.0707 18.5807Z" stroke="white" stroke-width="0.8" stroke-miterlimit="10" stroke-linecap="round" stroke-linejoin="round"/>
<path d="M12.0933 11.952L13.4191 13.2778" stroke="white" stroke-width="0.8" stroke-miterlimit="10" stroke-linecap="round" stroke-linejoin="round"/>
<path d="M18.7224 18.5809L20.0482 19.9067" stroke="white" stroke-width="0.8" stroke-miterlimit="10" stroke-linecap="round" stroke-linejoin="round"/>
<path d="M13.4191 21.2326L10.7674 18.5809C10.0352 17.8487 10.0352 16.6615 10.7674 15.9293C11.4997 15.1971 12.6868 15.1971 13.4191 15.9293L16.0707 18.5809C16.8029 19.3131 16.8029 20.5003 16.0707 21.2326C15.3384 21.9648 14.1513 21.9648 13.4191 21.2326Z" stroke="white" stroke-width="0.8" stroke-miterlimit="10" stroke-linecap="round" stroke-linejoin="round"/>
<path d="M9.44165 14.6034L10.7675 15.9292" stroke="white" stroke-width="0.8" stroke-miterlimit="10" stroke-linecap="round" stroke-linejoin="round"/>
<path d="M16.0706 21.2323L17.3964 22.5581" stroke="white" stroke-width="0.8" stroke-miterlimit="10" stroke-linecap="round" stroke-linejoin="round"/>
<path d="M10.7675 23.8844L8.11579 21.2327C7.3836 20.5005 7.3836 19.3134 8.11579 18.5811C8.84797 17.8489 10.0352 17.8489 10.7675 18.5811L13.4191 21.2327C14.1513 21.965 14.1513 23.1522 13.4191 23.8844C12.6868 24.6167 11.4997 24.6167 10.7675 23.8844Z" stroke="white" stroke-width="0.8" stroke-miterlimit="10" stroke-linecap="round" stroke-linejoin="round"/>
<path d="M6.79004 17.2552L8.11585 18.5811" stroke="white" stroke-width="0.8" stroke-miterlimit="10" stroke-linecap="round" stroke-linejoin="round"/>
<path d="M13.4189 23.8842L14.7448 25.21" stroke="white" stroke-width="0.8" stroke-miterlimit="10" stroke-linecap="round" stroke-linejoin="round"/>
<path d="M8.11566 26.5358L5.46398 23.8841C4.73173 23.1519 4.73173 21.9647 5.46398 21.2325C6.19623 20.5002 7.38341 20.5002 8.11566 21.2325L10.7673 23.8841C11.4995 24.6163 11.4995 25.8035 10.7673 26.5358C10.035 27.268 8.84785 27.268 8.11566 26.5358Z" stroke="white" stroke-width="0.8" stroke-miterlimit="10" stroke-linecap="round" stroke-linejoin="round"/>
<path d="M4.13818 19.9066L5.46399 21.2324" stroke="white" stroke-width="0.8" stroke-miterlimit="10" stroke-linecap="round" stroke-linejoin="round"/>
<path d="M10.7673 26.536L12.0931 27.8618" stroke="white" stroke-width="0.8" stroke-miterlimit="10" stroke-linecap="round" stroke-linejoin="round"/>
<path d="M5.46399 29.1876L2.81237 26.536C2.08012 25.8038 2.08012 24.6166 2.81237 23.8843C3.54462 23.1521 4.73174 23.1521 5.46399 23.8843L8.11567 26.536C8.84785 27.2682 8.84785 28.4554 8.11567 29.1876C7.38348 29.9199 6.19623 29.9199 5.46399 29.1876Z" stroke="white" stroke-width="0.8" stroke-miterlimit="10" stroke-linecap="round" stroke-linejoin="round"/>
<path d="M1.48657 22.5585L2.81238 23.8843" stroke="white" stroke-width="0.8" stroke-miterlimit="10" stroke-linecap="round" stroke-linejoin="round"/>
<path d="M8.11572 29.1874L9.44153 30.5132" stroke="white" stroke-width="0.8" stroke-miterlimit="10" stroke-linecap="round" stroke-linejoin="round"/>
</g>
</g>
<defs>
<clipPath id="clip0_3001_2073">
<rect width="32" height="32" fill="white"/>
</clipPath>
</defs>
</svg>
