<svg width="330" height="325" viewBox="0 0 330 325" fill="none" xmlns="http://www.w3.org/2000/svg">
<path d="M156.752 140.138C162.669 136.703 173.997 89.1442 173.1 80.8022C171.309 64.2582 164.497 46.4717 155.878 32.1859C151.354 23.9943 136.906 5.61378 134.528 0.265914L135.492 5.48377e-05C140.178 4.21785 141.72 9.84925 145.427 13.5176C162.569 30.4541 174.91 56.2592 177.495 80.2343C179.16 95.6478 171.557 117.638 165.531 132.004C163.29 137.271 160.15 142.715 158.568 147.827C171.988 137.742 194.175 122.582 203.899 109.724C219.438 89.1723 219.327 50.8035 220.09 25.6791C220.242 20.8282 220.123 17.2055 220.809 12.3404C226.306 32.7046 224.056 86.9521 212.152 106.468C199.883 126.568 183.192 135.784 165.697 148.679C166.514 151.68 165.749 150.632 168.586 152.388C173.643 152.853 177.938 150.567 182.779 149.432C198.503 145.736 214.111 144.052 230.212 143.797C249.618 143.496 267.709 148.395 286.794 151.074C299.678 152.734 316.3 153.105 329.542 153.664C297.148 160.91 275.465 154.235 244.122 149.627C230.184 147.578 180.926 151.632 169.795 159.005L169.845 161.648L171.719 164.045C170.214 164.992 170.472 164.406 170.094 165.629C167.679 172.197 162.565 173.66 156.443 175.206L154.705 175.358C154.449 175.881 150.463 198.99 150.356 200.491C147.331 242.804 169.769 285.779 204.892 309.244C209.516 312.324 228.411 322.874 229.642 324.316C226.493 324.185 215.529 318.564 212.163 316.88C175.732 298.573 150.989 263.122 146.365 222.612C144.56 206.689 146.296 193.551 148.604 177.916C148.836 176.328 148.614 175.192 147.708 173.854C139.534 177.529 116.506 227.048 113.752 237.991C107.532 262.692 104.117 296.322 88.2383 317.729C87.9832 315.987 90.6031 309.904 91.2919 307.934C104.722 269.444 104.371 229.473 128.005 194.515C131.962 188.659 144.38 173.442 140.249 167.414C139.457 167.204 138.672 166.99 137.888 166.774C134.061 169.66 126.426 175.474 122.72 177.588C113.022 183.165 102.741 188.6 92.1637 192.267C79.1902 196.765 65.6668 194.391 52.5401 191.582C34.6319 187.746 18.8727 180.368 2.64527 172.002L2.66808 170.024C26.9354 180.875 71.4033 196.305 95.8913 185.332C106.747 180.465 128.419 169.288 136.022 160.569C135.814 157.763 136.304 158.292 134.74 156.872C85.7502 170.447 47.8577 141.503 22.4238 101.933C18.7852 96.2679 18.0834 90.121 13.9588 85.4203L13.9136 83.7991C19.1654 88.0147 22.8754 99.3631 27.242 104.671C31.6698 110.068 38.5469 116.334 43.2613 121.473C69.3503 149.877 88.6749 155.899 127.489 154.32C129.722 154.231 131.726 153.657 133.655 152.534C134.349 150.79 134.855 150.667 136.327 149.299C139.952 158.579 141.894 167.06 151.959 171.266C157.299 173.497 163.802 172.692 165.684 166.615C168.413 157.832 162.564 150.666 157.918 144.191L156.752 140.138Z" fill="#D1D5DC"/>
<path d="M169.795 159.005C201.619 166.954 226.352 173.413 248.898 199.284C254.79 206.057 261.792 212.235 266.26 220.311C276.638 238.77 281.186 260.504 281.331 281.561C281.349 283.616 281.484 289.24 280.759 290.92C279.667 287.434 279.966 284.421 279.65 280.799C273.958 215.164 231.99 177.685 169.845 161.648L169.795 159.005Z" fill="#D1D5DC"/>
<path d="M133.655 152.534C130.079 149.529 135.549 150.31 126.886 146.086C115.979 140.767 97.486 134.269 92.1729 122.931C85.8507 109.461 87.3691 81.7529 92.0804 68.1555C90.8756 80.9701 90.5748 106.939 95.8738 118.459C101.47 130.633 120.678 138.496 132.964 142.817C134.303 132.598 133.317 137.077 131.829 128.244L136.306 133.545L139.007 133.074C140.38 129.955 139.614 129.564 138.826 125.725C141.844 127.138 144.377 129.634 146.944 131.842L147.027 134.414C143.572 131.875 144.669 131.87 141.126 131.838C134.31 134.926 134.775 143.196 136.327 149.299C134.855 150.667 134.349 150.79 133.655 152.534Z" fill="#D1D5DC"/>
<path d="M142.056 91.7426C132.514 83.8017 124.269 79.9504 113.023 74.8488C109.709 73.3424 94.7017 68.2114 93.6799 66.8386C100.961 66.3743 133.888 77.6069 140.965 84.216C157.92 100.017 147.949 126.598 156.752 140.138L157.918 144.191C153.73 138.601 152.789 137.905 147.027 134.414L146.944 131.842C151.855 124.944 144.974 99.6525 142.056 91.7426Z" fill="#D1D5DC"/>
<path d="M157.874 190.009L159.351 189.866C166.102 219.262 185.728 243.965 216.549 248.912C219.655 231.265 217.664 221.19 210.022 205.117L213.847 207.674C231.28 249.87 214.625 265.09 179.542 232.655C171.094 224.84 157.399 201.827 157.874 190.009Z" fill="#D1D5DC"/>
<path d="M170.094 165.629C170.472 164.406 170.214 164.992 171.719 164.045C185.69 172.177 204.752 190.529 211.886 205.065C208.962 202.556 205.733 196.71 201.072 192.326C190.58 184.131 185.085 175.486 170.094 165.629Z" fill="#D1D5DC"/>
<path d="M154.705 175.358L156.443 175.206C157.742 179.47 159.073 185.437 159.351 189.866L157.874 190.009C157.106 185.22 156.459 179.812 154.705 175.358Z" fill="#D1D5DC"/>
<path d="M2.64527 172.002C-0.314034 170.642 -2.69584 169.973 -4.51463 167.386C-2.07754 166.97 0.351675 168.773 2.66808 170.024L2.64527 172.002Z" fill="#D1D5DC"/>
<path d="M201.072 192.326C205.733 196.71 208.962 202.556 211.886 205.065L213.847 207.674L210.022 205.117L201.072 192.326Z" fill="#D1D5DC"/>
</svg>
